<svg width="28" height="28" viewBox="0 0 28 28" fill="none" xmlns="http://www.w3.org/2000/svg">
<g id="Graph">
<path id="Stroke 1" fill-rule="evenodd" clip-rule="evenodd" d="M21.0369 16.519C21.9366 16.519 22.6917 17.2614 22.5541 18.1499C21.7471 23.3765 17.2727 27.2572 11.8762 27.2572C5.9057 27.2572 1.06641 22.4179 1.06641 16.4488C1.06641 11.5309 4.80255 6.94986 9.00886 5.91407C9.91272 5.69091 10.839 6.3267 10.839 7.25723C10.839 13.5618 11.051 15.1927 12.2482 16.0797C13.4454 16.9667 14.8531 16.519 21.0369 16.519Z" stroke="white" stroke-width="1.5" stroke-linecap="round" stroke-linejoin="round"/>
<path id="Stroke 3" fill-rule="evenodd" clip-rule="evenodd" d="M26.9229 11.2688C26.9944 7.21832 22.019 0.689197 15.9558 0.801478C15.4843 0.809899 15.1067 1.20288 15.0857 1.67306C14.9327 5.00358 15.139 9.31937 15.2541 11.2759C15.2892 11.885 15.7678 12.3636 16.3755 12.3987C18.3867 12.5138 22.8597 12.671 26.1425 12.1741C26.5888 12.1067 26.9158 11.7194 26.9229 11.2688Z" stroke="white" stroke-width="1.5" stroke-linecap="round" stroke-linejoin="round"/>
</g>
</svg>
