<svg width="32" height="32" viewBox="0 0 32 32" fill="none" xmlns="http://www.w3.org/2000/svg">
<g id="lifebuoy">
<path id="Vector" d="M20.8487 20.8487C18.1708 23.5266 13.8291 23.5266 11.1512 20.8487M20.8487 20.8487C23.5266 18.1709 23.5266 13.8291 20.8487 11.1513M20.8487 20.8487L24.4853 24.4853M11.1512 20.8487C8.47333 18.1709 8.47333 13.8291 11.1512 11.1513M11.1512 20.8487L7.51472 24.4853M20.8487 11.1513C18.1708 8.47339 13.8291 8.47339 11.1512 11.1513M20.8487 11.1513L24.4853 7.51472M11.1512 11.1513L7.51472 7.51472M24.4853 24.4853C19.799 29.1716 12.201 29.1716 7.51472 24.4853M24.4853 24.4853C29.1716 19.799 29.1716 12.201 24.4853 7.51472M7.51472 24.4853C2.82843 19.799 2.82843 12.201 7.51472 7.51472M24.4853 7.51472C19.799 2.82843 12.201 2.82843 7.51472 7.51472" stroke="white" stroke-width="1.5"/>
</g>
</svg>
