<svg width="20" height="21" viewBox="0 0 20 21" fill="none" xmlns="http://www.w3.org/2000/svg">
<g id="title icons ">
<path id="Vector" d="M3 15.9167H17M3 18.3333H17M5 7V5.5H6.5M13.5 5.5H15V7M5 10V11.5H6.5M13.5 11.5H15V10M10 10.5C8.89543 10.5 8 9.60457 8 8.5C8 7.39543 8.89543 6.5 10 6.5C11.1046 6.5 12 7.39543 12 8.5C12 9.60457 11.1046 10.5 10 10.5ZM4 3.5H16C16.5523 3.5 17 3.94772 17 4.5V12.5C17 13.0523 16.5523 13.5 16 13.5H4C3.44772 13.5 3 13.0523 3 12.5V4.5C3 3.94772 3.44772 3.5 4 3.5Z" stroke="#73FFF2" stroke-width="1.5" stroke-linecap="round"/>
</g>
</svg>
