<svg width="16" height="14" viewBox="0 0 16 14" fill="none" xmlns="http://www.w3.org/2000/svg">
<g id="Filter">
<path id="Stroke 1" d="M6.60997 10.8274H1.35938" stroke="white" stroke-width="1.5" stroke-linecap="round" stroke-linejoin="round"/>
<path id="Stroke 3" d="M8.95117 2.75035H14.2018" stroke="white" stroke-width="1.5" stroke-linecap="round" stroke-linejoin="round"/>
<path id="Stroke 5" fill-rule="evenodd" clip-rule="evenodd" d="M5.27256 2.70521C5.27256 1.6255 4.39076 0.75 3.30327 0.75C2.21578 0.75 1.33398 1.6255 1.33398 2.70521C1.33398 3.78492 2.21578 4.66042 3.30327 4.66042C4.39076 4.66042 5.27256 3.78492 5.27256 2.70521Z" stroke="white" stroke-width="1.5" stroke-linecap="round" stroke-linejoin="round"/>
<path id="Stroke 7" fill-rule="evenodd" clip-rule="evenodd" d="M14.6671 10.7948C14.6671 9.7151 13.786 8.8396 12.6985 8.8396C11.6103 8.8396 10.7285 9.7151 10.7285 10.7948C10.7285 11.8745 11.6103 12.75 12.6985 12.75C13.786 12.75 14.6671 11.8745 14.6671 10.7948Z" stroke="white" stroke-width="1.5" stroke-linecap="round" stroke-linejoin="round"/>
</g>
</svg>
