<svg width="18" height="18" viewBox="0 0 18 18" fill="none" xmlns="http://www.w3.org/2000/svg">
<g id="Setting">
<path id="Path_33946" fill-rule="evenodd" clip-rule="evenodd" d="M16.3392 5.35299L15.8205 4.45291C15.3817 3.69131 14.4092 3.42858 13.6466 3.86558V3.86558C13.2835 4.07943 12.8504 4.14011 12.4425 4.03422C12.0347 3.92833 11.6858 3.66458 11.4727 3.30112C11.3355 3.0701 11.2619 2.80697 11.2591 2.53835V2.53835C11.2714 2.10766 11.109 1.69031 10.8086 1.38137C10.5083 1.07243 10.0957 0.898199 9.66487 0.898377H8.61987C8.19776 0.898372 7.79304 1.06657 7.49528 1.36577C7.19752 1.66496 7.03126 2.07047 7.03329 2.49258V2.49258C7.02078 3.36408 6.31068 4.06399 5.43909 4.0639C5.17046 4.06111 4.90733 3.98743 4.67631 3.85032V3.85032C3.91367 3.41332 2.94121 3.67606 2.5024 4.43766L1.94557 5.35299C1.50729 6.11364 1.76645 7.08548 2.52528 7.5269V7.5269C3.01854 7.81168 3.32239 8.33797 3.32239 8.90753C3.32239 9.47709 3.01854 10.0034 2.52528 10.2882V10.2882C1.76742 10.7266 1.50797 11.6961 1.94557 12.4544V12.4544L2.47189 13.3621C2.67749 13.7331 3.02245 14.0069 3.43045 14.1228C3.83844 14.2388 4.27582 14.1874 4.6458 13.98V13.98C5.00952 13.7678 5.44294 13.7096 5.84973 13.8185C6.25653 13.9273 6.60298 14.1942 6.81209 14.5597C6.9492 14.7907 7.02287 15.0539 7.02566 15.3225V15.3225C7.02566 16.2029 7.73941 16.9167 8.61987 16.9167H9.66487C10.5424 16.9167 11.2549 16.2076 11.2591 15.3301V15.3301C11.257 14.9067 11.4243 14.5 11.7238 14.2006C12.0232 13.9012 12.4298 13.7339 12.8533 13.7359C13.1213 13.7431 13.3833 13.8164 13.6161 13.9495V13.9495C14.3767 14.3878 15.3485 14.1286 15.79 13.3698V13.3698L16.3392 12.4544C16.5517 12.0896 16.6101 11.655 16.5013 11.247C16.3925 10.8389 16.1255 10.4911 15.7595 10.2805V10.2805C15.3934 10.0699 15.1264 9.72213 15.0176 9.3141C14.9088 8.90607 14.9672 8.47149 15.1797 8.10661C15.318 7.86526 15.5181 7.66514 15.7595 7.5269V7.5269C16.5137 7.08572 16.7723 6.11956 16.3392 5.36062V5.36062V5.35299Z" stroke="white" stroke-width="1.5" stroke-linecap="round" stroke-linejoin="round"/>
<circle id="Ellipse_737" cx="9.14602" cy="8.90755" r="2.1968" stroke="white" stroke-width="1.5" stroke-linecap="round" stroke-linejoin="round"/>
</g>
</svg>
