<svg width="18" height="17" viewBox="0 0 18 17" fill="none" xmlns="http://www.w3.org/2000/svg">
<g id="2 User">
<path id="Stroke 1" fill-rule="evenodd" clip-rule="evenodd" d="M6.99268 11.1724C10.0668 11.1724 12.6943 11.6382 12.6943 13.499C12.6943 15.3599 10.0843 15.839 6.99268 15.839C3.91768 15.839 1.29102 15.3774 1.29102 13.5157C1.29102 11.654 3.90018 11.1724 6.99268 11.1724Z" stroke="#73FFF2" stroke-width="1.5" stroke-linecap="round" stroke-linejoin="round"/>
<path id="Stroke 3" fill-rule="evenodd" clip-rule="evenodd" d="M6.99289 8.51653C4.97456 8.51653 3.33789 6.88069 3.33789 4.86236C3.33789 2.84402 4.97456 1.20819 6.99289 1.20819C9.01039 1.20819 10.6471 2.84402 10.6471 4.86236C10.6546 6.87319 9.02956 8.50903 7.01872 8.51653H6.99289Z" stroke="#73FFF2" stroke-width="1.5" stroke-linecap="round" stroke-linejoin="round"/>
<path id="Stroke 5" d="M12.7363 7.56802C14.0705 7.38052 15.098 6.23552 15.1005 4.84969C15.1005 3.48385 14.1047 2.35052 12.7988 2.13635" stroke="#73FFF2" stroke-width="1.5" stroke-linecap="round" stroke-linejoin="round"/>
<path id="Stroke 7" d="M14.4961 10.7769C15.7886 10.9694 16.6911 11.4227 16.6911 12.356C16.6911 12.9985 16.2661 13.4152 15.5794 13.676" stroke="#73FFF2" stroke-width="1.5" stroke-linecap="round" stroke-linejoin="round"/>
</g>
</svg>
