<svg width="28" height="27" viewBox="0 0 28 27" fill="none" xmlns="http://www.w3.org/2000/svg">
<g id="Work">
<path id="Stroke 1" d="M13.9928 20.2357V16.853" stroke="white" stroke-width="1.5" stroke-linecap="round" stroke-linejoin="round"/>
<g id="Group 8">
<path id="Stroke 2" fill-rule="evenodd" clip-rule="evenodd" d="M22.2527 5.10693C24.506 5.10693 26.3193 6.9336 26.3193 9.18693V13.7736C23.0393 15.6936 18.706 16.8536 13.986 16.8536C9.26602 16.8536 4.94602 15.6936 1.66602 13.7736V9.1736C1.66602 6.92027 3.49268 5.10693 5.74602 5.10693H22.2527Z" stroke="white" stroke-width="1.5" stroke-linecap="round" stroke-linejoin="round"/>
<path id="Stroke 4" d="M18.6595 5.10105V4.61305C18.6595 2.98638 17.3395 1.66638 15.7128 1.66638H12.2728C10.6462 1.66638 9.32617 2.98638 9.32617 4.61305V5.10105" stroke="white" stroke-width="1.5" stroke-linecap="round" stroke-linejoin="round"/>
<path id="Stroke 6" d="M1.69922 18.644L1.95122 21.9893C2.12189 24.244 4.00055 25.9866 6.26055 25.9866H21.7259C23.9859 25.9866 25.8646 24.244 26.0352 21.9893L26.2872 18.644" stroke="white" stroke-width="1.5" stroke-linecap="round" stroke-linejoin="round"/>
</g>
</g>
</svg>
