<svg width="30" height="23" viewBox="0 0 30 23" fill="none" xmlns="http://www.w3.org/2000/svg">
<g id="3 User">
<path id="Stroke 1" d="M22.8516 10.5289C24.7116 10.2676 26.1436 8.67293 26.1476 6.74093C26.1476 4.83693 24.7596 3.25826 22.9396 2.95959" stroke="white" stroke-width="1.5" stroke-linecap="round" stroke-linejoin="round"/>
<path id="Stroke 3" d="M25.3047 15.0004C27.106 15.2697 28.3634 15.9004 28.3634 17.2004C28.3634 18.095 27.7714 18.6764 26.814 19.0417" stroke="white" stroke-width="1.5" stroke-linecap="round" stroke-linejoin="round"/>
<path id="Stroke 5" fill-rule="evenodd" clip-rule="evenodd" d="M14.8496 15.5518C10.5643 15.5518 6.9043 16.2011 6.9043 18.7944C6.9043 21.3864 10.5416 22.0544 14.8496 22.0544C19.135 22.0544 22.7936 21.4118 22.7936 18.8171C22.7936 16.2224 19.1576 15.5518 14.8496 15.5518Z" stroke="white" stroke-width="1.5" stroke-linecap="round" stroke-linejoin="round"/>
<path id="Stroke 7" fill-rule="evenodd" clip-rule="evenodd" d="M14.8499 11.8505C17.6619 11.8505 19.9419 9.57184 19.9419 6.7585C19.9419 3.9465 17.6619 1.6665 14.8499 1.6665C12.0379 1.6665 9.75785 3.9465 9.75785 6.7585C9.74718 9.56117 12.0099 11.8412 14.8125 11.8505H14.8499Z" stroke="white" stroke-width="1.5" stroke-linecap="round" stroke-linejoin="round"/>
<path id="Stroke 9" d="M6.84678 10.5289C4.98545 10.2676 3.55478 8.67293 3.55078 6.74093C3.55078 4.83693 4.93878 3.25826 6.75878 2.95959" stroke="white" stroke-width="1.5" stroke-linecap="round" stroke-linejoin="round"/>
<path id="Stroke 11" d="M4.39265 15.0004C2.59132 15.2697 1.33398 15.9004 1.33398 17.2004C1.33398 18.095 1.92598 18.6764 2.88332 19.0417" stroke="white" stroke-width="1.5" stroke-linecap="round" stroke-linejoin="round"/>
</g>
</svg>
